<?xml version="1.0" encoding="UTF-8"?>
<svg xmlns="http://www.w3.org/2000/svg" xmlns:xlink="http://www.w3.org/1999/xlink" width="375pt" height="374.999991pt" viewBox="0 0 375 374.999991" version="1.2">
<defs>
<clipPath id="clip1">
  <path d="M 65.703125 128.476562 L 278.703125 128.476562 L 278.703125 180 L 65.703125 180 Z M 65.703125 128.476562 "/>
</clipPath>
<clipPath id="clip2">
  <path d="M 65.703125 150 L 278.703125 150 L 278.703125 191 L 65.703125 191 Z M 65.703125 150 "/>
</clipPath>
<clipPath id="clip3">
  <path d="M 249 208 L 265 208 L 265 242.476562 L 249 242.476562 Z M 249 208 "/>
</clipPath>
</defs>
<g id="surface1">
<path style=" stroke:none;fill-rule:nonzero;fill:rgb(94.509888%,64.709473%,6.669617%);fill-opacity:1;" d="M 172.671875 285.902344 C 110.140625 285.902344 59.457031 235.207031 59.457031 172.6875 C 59.457031 110.152344 110.140625 59.472656 172.671875 59.472656 C 235.191406 59.472656 285.886719 110.152344 285.886719 172.6875 C 285.8125 235.175781 235.164062 285.828125 172.671875 285.902344 Z M 361.363281 340.035156 L 284.132812 262.816406 C 333.988281 201.183594 324.4375 110.800781 262.800781 60.945312 C 201.152344 11.089844 110.773438 20.644531 60.933594 82.277344 C 11.074219 143.925781 20.628906 234.308594 82.261719 284.164062 C 134.90625 326.738281 210.144531 326.738281 262.800781 284.164062 L 340.019531 361.378906 C 345.886719 367.289062 355.4375 367.335938 361.363281 361.453125 C 367.277344 355.585938 367.304688 346.035156 361.4375 340.105469 C 361.410156 340.09375 361.378906 340.0625 361.363281 340.035156 "/>
<g clip-path="url(#clip1)" clip-rule="nonzero">
<path style=" stroke:none;fill-rule:nonzero;fill:rgb(1.179504%,31.369019%,52.938843%);fill-opacity:1;" d="M 178.101562 179.890625 L 278.636719 154.191406 L 191.359375 128.496094 L 65.828125 150.050781 L 178.101562 179.890625 "/>
</g>
<g clip-path="url(#clip2)" clip-rule="nonzero">
<path style=" stroke:none;fill-rule:nonzero;fill:rgb(1.179504%,31.369019%,52.938843%);fill-opacity:1;" d="M 178.101562 179.890625 L 65.828125 150.050781 L 65.828125 160.824219 L 178.101562 190.667969 L 278.636719 164.96875 L 278.636719 154.191406 L 178.101562 179.890625 "/>
</g>
<path style=" stroke:none;fill-rule:nonzero;fill:rgb(1.179504%,31.369019%,52.938843%);fill-opacity:1;" d="M 178.101562 196.054688 L 118.027344 180.085938 L 118.027344 212.21875 C 118.027344 212.21875 137.292969 228.796875 175.613281 228.796875 C 213.933594 228.796875 236.929688 212.21875 236.929688 212.21875 L 236.929688 179.890625 L 178.101562 196.054688 "/>
<g clip-path="url(#clip3)" clip-rule="nonzero">
<path style=" stroke:none;fill-rule:nonzero;fill:rgb(1.179504%,31.369019%,52.938843%);fill-opacity:1;" d="M 264.480469 240.699219 L 261.011719 241.507812 L 259.371094 223.535156 L 259.511719 242.515625 L 255.679688 242.515625 L 255.679688 232.722656 L 253.976562 241.605469 L 249.152344 240.699219 L 255.679688 208.1875 L 261.011719 208.1875 L 264.480469 240.699219 "/>
</g>
<path style=" stroke:none;fill-rule:nonzero;fill:rgb(1.179504%,31.369019%,52.938843%);fill-opacity:1;" d="M 262.777344 208.1875 C 262.777344 210.460938 260.933594 212.304688 258.660156 212.304688 C 256.386719 212.304688 254.542969 210.460938 254.542969 208.1875 C 254.542969 205.914062 256.386719 204.070312 258.660156 204.070312 C 260.933594 204.070312 262.777344 205.914062 262.777344 208.1875 "/>
<path style=" stroke:none;fill-rule:nonzero;fill:rgb(1.179504%,31.369019%,52.938843%);fill-opacity:1;" d="M 260.550781 209.679688 L 255.980469 209.679688 L 255.980469 161.144531 L 260.550781 161.144531 L 260.550781 209.679688 "/>
</g>
</svg>
